<?xml version="1.0" encoding="utf-8"?>
<!-- Generator: Adobe Illustrator 27.2.0, SVG Export Plug-In . SVG Version: 6.00 Build 0)  -->
<svg version="1.1"
	 id="svg2" xmlns:inkscape="http://www.inkscape.org/namespaces/inkscape" xmlns:dc="http://purl.org/dc/elements/1.1/" xmlns:sodipodi="http://sodipodi.sourceforge.net/DTD/sodipodi-0.dtd" xmlns:rdf="http://www.w3.org/1999/02/22-rdf-syntax-ns#" xmlns:cc="http://creativecommons.org/ns#" xmlns:svg="http://www.w3.org/2000/svg" xmlns:ns1="http://sozi.baierouge.fr" inkscape:output_extension="org.inkscape.output.svg.inkscape" inkscape:version="0.46" sodipodi:docname="swerty_eye.svg" sodipodi:version="0.32"
	 xmlns="http://www.w3.org/2000/svg" xmlns:xlink="http://www.w3.org/1999/xlink" x="0px" y="0px" viewBox="0 0 122.2 72.1"
	 style="enable-background:new 0 0 122.2 72.1;" xml:space="preserve">
<style type="text/css">
	.st0{fill:#0000DE;}
	.st1{fill:#FFFFFF;stroke:#000000;stroke-width:6.605;stroke-linecap:round;}
	.st2{fill:none;stroke:#000000;stroke-width:6.605;stroke-linecap:round;}
	.st3{fill:url(#path3168_00000013875217363937542590000006059274799154358675_);}
	.st4{fill:none;stroke:#000000;stroke-width:9.1446;stroke-linecap:round;stroke-miterlimit:5.538;}
</style>
<sodipodi:namedview  bordercolor="#666666" borderopacity="1.0" gridtolerance="10000" guidetolerance="10" id="base" inkscape:current-layer="layer1" inkscape:cx="296.89701" inkscape:cy="743.73197" inkscape:document-units="px" inkscape:guide-bbox="true" inkscape:pageopacity="0.0" inkscape:pageshadow="2" inkscape:window-height="712" inkscape:window-width="1024" inkscape:window-x="-4" inkscape:window-y="-4" inkscape:zoom="1.9163562" objecttolerance="10" pagecolor="#ffffff" showgrid="false" showguides="true">
	</sodipodi:namedview>
<g id="layer1" transform="translate(-173.21 -262.83)" inkscape:groupmode="layer" inkscape:label="Layer 1">
	<g id="g3178">
		<path class="st0" d="M237.5,316.5c-10.7,1-20.3-6.7-21.4-17.1c-1-10.4,6.7-19.7,17.4-20.8l0.2,0c10.7-1,20.3,6.6,21.3,17.1
			C256.1,306.1,248.2,315.4,237.5,316.5z"/>
		<path class="st1" d="M233.8,266.1c-31.9,0-58.5,29-57.3,32.8c0.5,1.6,26.4,32.7,58.2,32.7l1.7,0c31.3-0.5,55.4-31.7,55.6-32.8
			C292.5,296.2,265.7,266.1,233.8,266.1z M237.5,316.5c-10.7,1-20.3-6.7-21.4-17.1c-1-10.4,6.7-19.7,17.4-20.8l0.2,0
			c10.7-1,20.3,6.6,21.3,17.1C256.1,306.1,248.2,315.4,237.5,316.5z"/>
		<path class="st2" d="M237.5,316.5c-10.7,1-20.3-6.7-21.4-17.1c-1-10.4,6.7-19.7,17.4-20.8l0.2,0c10.7-1,20.3,6.6,21.3,17.1
			C256.1,306.1,248.2,315.4,237.5,316.5z"/>
		
			<linearGradient id="path3168_00000052082421867664116280000006172868051029918878_" gradientUnits="userSpaceOnUse" x1="295.6235" y1="259.9985" x2="304.633" y2="269.1921" gradientTransform="matrix(1.7416 0 0 -1.7416 -286.5481 757.0541)">
			<stop  offset="0" style="stop-color:#FFFFFF"/>
			<stop  offset="1" style="stop-color:#FFFFFF;stop-opacity:0"/>
		</linearGradient>
		
			<path id="path3168" sodipodi:cx="353.53552" sodipodi:cy="234.66452" sodipodi:end="10.935153" sodipodi:open="true" sodipodi:rx="11.219209" sodipodi:ry="10.958297" sodipodi:start="4.6610829" sodipodi:type="arc" style="fill:url(#path3168_00000052082421867664116280000006172868051029918878_);" d="
			M233.8,285.8c6.6-0.6,12.5,4.1,13.1,10.5c0.6,6.4-4.2,12.2-10.8,12.8c-6.6,0.6-12.5-4.1-13.1-10.5c-0.6-6.4,4.1-12.1,10.7-12.8
			L233.8,285.8z"/>
		
			<path id="path3162" sodipodi:cx="353.53552" sodipodi:cy="234.66452" sodipodi:end="4.6519677" sodipodi:open="true" sodipodi:rx="11.219209" sodipodi:ry="10.958297" sodipodi:start="0.53396878" sodipodi:type="arc" class="st4" d="
			M248.3,305.8c-4.4,7.2-13.9,9.6-21.3,5.4c-7.4-4.3-9.8-13.6-5.5-20.8c2.6-4.3,7.3-7.1,12.4-7.4"/>
	</g>
</g>
</svg>
