<?xml version="1.0" encoding="utf-8"?>
<!-- Generator: Adobe Illustrator 27.2.0, SVG Export Plug-In . SVG Version: 6.00 Build 0)  -->
<svg version="1.1"
	 id="svg11300" xmlns:inkscape="http://www.inkscape.org/namespaces/inkscape" xmlns:dc="http://purl.org/dc/elements/1.1/" xmlns:sodipodi="http://sodipodi.sourceforge.net/DTD/sodipodi-0.dtd" xmlns:rdf="http://www.w3.org/1999/02/22-rdf-syntax-ns#" xmlns:cc="http://creativecommons.org/ns#" xmlns:svg="http://www.w3.org/2000/svg" xmlns:ns1="http://sozi.baierouge.fr" inkscape:export-filename="/home/jimmac/Desktop/wi-fi.png" inkscape:export-xdpi="90.000000" inkscape:export-ydpi="90.000000" inkscape:output_extension="org.inkscape.output.svg.inkscape" inkscape:version="0.46" sodipodi:docbase="/home/jimmac/src/cvs/tango-icon-theme/scalable/apps" sodipodi:docname="accessories-character-map.svg" sodipodi:version="0.32"
	 xmlns="http://www.w3.org/2000/svg" xmlns:xlink="http://www.w3.org/1999/xlink" x="0px" y="0px" viewBox="0 0 48 48"
	 style="enable-background:new 0 0 48 48;" xml:space="preserve">
<style type="text/css">
	.st0{opacity:0.4021;fill:url(#rect6709_00000158712893859462425660000005328976775331094188_);enable-background:new    ;}
	.st1{opacity:0.4021;fill:url(#path6711_00000085240097183402865560000015254889723071326874_);enable-background:new    ;}
	.st2{opacity:0.4021;fill:url(#path6713_00000078728596157664327510000006901180282052457885_);enable-background:new    ;}
	.st3{fill:#383937;stroke:#222221;}
	
		.st4{fill:url(#rect3835_00000008830848429887327910000013137232964037227681_);stroke:url(#rect3835_00000074424368356527710770000004697683758065337019_);}
	.st5{opacity:0.4889;fill:none;stroke:#FFFFFF;enable-background:new    ;}
	.st6{opacity:0.4889;fill:#FFFFFF;enable-background:new    ;}
	.st7{fill:url(#path4746_00000131348252407661848100000012226982652367165569_);}
	.st8{fill:url(#path4748_00000071560357772047323680000005754264447126198708_);}
</style>
<sodipodi:namedview  bordercolor="#666666" borderopacity="0.25490196" fill="#d3d7cf" id="base" inkscape:current-layer="layer1" inkscape:cx="-135.31929" inkscape:cy="5.8673624" inkscape:document-units="px" inkscape:grid-bbox="true" inkscape:pageopacity="0.0" inkscape:pageshadow="2" inkscape:showpageshadow="false" inkscape:window-height="688" inkscape:window-width="872" inkscape:window-x="313" inkscape:window-y="160" inkscape:zoom="1" pagecolor="#ffffff" showgrid="false" stroke="#eeeeec">
	</sodipodi:namedview>
<g id="layer1" inkscape:groupmode="layer" inkscape:label="Layer 1">
	<g id="g6707" transform="matrix(.021713 0 0 .024526 43.187 37.955)">
		
			<linearGradient id="rect6709_00000062915026715055490620000012129940390772981925_" gradientUnits="userSpaceOnUse" x1="424901.6875" y1="-333428.5625" x2="424901.6875" y2="-333671.4062" gradientTransform="matrix(6.024055e-02 0 0 -4.830886e-02 -26485.8086 -16258.2539)">
			<stop  offset="0" style="stop-color:#000000;stop-opacity:0"/>
			<stop  offset="0.5" style="stop-color:#000000"/>
			<stop  offset="1" style="stop-color:#000000;stop-opacity:0"/>
		</linearGradient>
		
			<rect id="rect6709" x="-1559.3" y="-150.7" style="opacity:0.4021;fill:url(#rect6709_00000062915026715055490620000012129940390772981925_);enable-background:new    ;" width="1339.6" height="478.4"/>
		
			<radialGradient id="path6711_00000133489058594946458380000000460216192845316774_" cx="436152.9375" cy="-338321.3438" r="117.14" gradientTransform="matrix(6.024055e-02 0 0 -4.830886e-02 -26485.209 -16258.2539)" gradientUnits="userSpaceOnUse">
			<stop  offset="0" style="stop-color:#000000"/>
			<stop  offset="1" style="stop-color:#000000;stop-opacity:0"/>
		</radialGradient>
		
			<path id="path6711" sodipodi:nodetypes="cccc" style="opacity:0.4021;fill:url(#path6711_00000133489058594946458380000000460216192845316774_);enable-background:new    ;" d="
			M-219.6-150.7v478.3c142.9,0.9,345.4-107.2,345.4-239.2C125.8-43.6-33.7-150.7-219.6-150.7z"/>
		
			<radialGradient id="path6713_00000123416782108095108820000002496742194644005504_" cx="-436933.75" cy="-338321.3438" r="117.14" gradientTransform="matrix(-6.024055e-02 0 0 -4.830886e-02 -27888.8496 -16258.2539)" gradientUnits="userSpaceOnUse">
			<stop  offset="0" style="stop-color:#000000"/>
			<stop  offset="1" style="stop-color:#000000;stop-opacity:0"/>
		</radialGradient>
		
			<path id="path6713" sodipodi:nodetypes="cccc" style="opacity:0.4021;fill:url(#path6713_00000123416782108095108820000002496742194644005504_);enable-background:new    ;" d="
			M-1559.3-150.7v478.3c-142.8,0.9-345.4-107.2-345.4-239.2C-1904.7-43.6-1745.2-150.7-1559.3-150.7z"/>
	</g>
	<path id="rect2960" inkscape:r_cx="true" inkscape:r_cy="true" class="st3" d="M10,4.5H38c2.5,0,4.5,2.1,4.5,4.7v28.7
		c0,2.6-2,4.7-4.5,4.7H10c-2.5,0-4.5-2.1-4.5-4.7V9.2C5.5,6.6,7.5,4.5,10,4.5z"/>
	
		<radialGradient id="rect3835_00000126310944186128594330000014448748984703035293_" cx="-811.5756" cy="231.0901" r="15.0948" gradientTransform="matrix(-2.1541 0 0 -2.1541 -1724.2151 527.7402)" gradientUnits="userSpaceOnUse">
		<stop  offset="0" style="stop-color:#454645"/>
		<stop  offset="1" style="stop-color:#383937"/>
	</radialGradient>
	
		<linearGradient id="rect3835_00000147926307486435979820000012340087758640246160_" gradientUnits="userSpaceOnUse" x1="-1121.5364" y1="32.7698" x2="-1121.5364" y2="11.2698" gradientTransform="matrix(-0.9937 0 0 -0.9937 -1090.4482 46.116)">
		<stop  offset="0" style="stop-color:#40403F"/>
		<stop  offset="1" style="stop-color:#FFFFFF"/>
	</linearGradient>
	
		<path id="rect3835" inkscape:r_cx="true" inkscape:r_cy="true" style="fill:url(#rect3835_00000126310944186128594330000014448748984703035293_);stroke:url(#rect3835_00000147926307486435979820000012340087758640246160_);" d="
		M34.9,7.5H13.1c-2,0-3.6,1.6-3.6,3.6v21.9c0,2,1.6,3.6,3.6,3.6h21.9c2,0,3.6-1.6,3.6-3.6V11.1C38.5,9.1,36.9,7.5,34.9,7.5z"/>
	<path id="rect4740" inkscape:r_cx="true" inkscape:r_cy="true" class="st5" d="M10,5.5h28c2,0,3.5,1.6,3.5,3.5V38
		c0,2-1.6,3.5-3.5,3.5H10c-2,0-3.5-1.6-3.5-3.5V9C6.5,7.1,8,5.5,10,5.5z"/>
	<path id="path4742" inkscape:r_cx="true" inkscape:r_cy="true" sodipodi:nodetypes="ccccc" class="st6" d="M5.9,38.5
		c0.1,1.1,1.3,2.9,2.8,3.3l2.2-5.5L10,35.6L5.9,38.5z"/>
	<path id="path4744" inkscape:r_cx="true" inkscape:r_cy="true" sodipodi:nodetypes="ccccc" class="st6" d="M42.1,38.5
		c-0.1,1.1-1.3,2.9-2.8,3.3l-2.2-5.5l0.9-0.7L42.1,38.5z"/>
	
		<linearGradient id="path4746_00000129179163307787403960000006295177835353856902_" gradientUnits="userSpaceOnUse" x1="38.6477" y1="41.4536" x2="39.7927" y2="40.009" gradientTransform="matrix(1 0 0 -1 0 47.8898)">
		<stop  offset="0" style="stop-color:#FFFFFF;stop-opacity:0"/>
		<stop  offset="0.5" style="stop-color:#FFFFFF"/>
		<stop  offset="1" style="stop-color:#FFFFFF;stop-opacity:0"/>
	</linearGradient>
	
		<path id="path4746" inkscape:r_cx="true" inkscape:r_cy="true" sodipodi:nodetypes="ccccc" style="fill:url(#path4746_00000129179163307787403960000006295177835353856902_);" d="
		M41.5,7.1c-0.4-0.6-1.2-1.6-2.2-1.9l-1.9,2.6l0.9,1L41.5,7.1z"/>
	
		<linearGradient id="path4748_00000023279151704254348050000005298730151186022540_" gradientUnits="userSpaceOnUse" x1="8.1427" y1="39.9351" x2="9.0933" y2="41.0841" gradientTransform="matrix(1 0 0 -1 0 47.8898)">
		<stop  offset="0" style="stop-color:#FFFFFF;stop-opacity:0"/>
		<stop  offset="0.5" style="stop-color:#FFFFFF"/>
		<stop  offset="1" style="stop-color:#FFFFFF;stop-opacity:0"/>
	</linearGradient>
	
		<path id="path4748" inkscape:r_cx="true" inkscape:r_cy="true" sodipodi:nodetypes="ccccc" style="fill:url(#path4748_00000023279151704254348050000005298730151186022540_);" d="
		M6.4,7.1c0.4-0.6,1.1-1.6,2.1-1.9l1.9,2.7l-0.7,1L6.4,7.1z"/>
</g>
</svg>
